<?xml version="1.0" encoding="utf-8"?>
<!-- Generator: Adobe Illustrator 25.3.1, SVG Export Plug-In . SVG Version: 6.00 Build 0)  -->
<svg version="1.1" id="레이어_1" xmlns="http://www.w3.org/2000/svg" xmlns:xlink="http://www.w3.org/1999/xlink" x="0px"
	 y="0px" viewBox="0 0 225 225" style="enable-background:new 0 0 225 225;" xml:space="preserve">
<style type="text/css">
	.st0{fill:#B93D00;}
	.st1{fill:#1E1E1E;}
	.st2{fill:#F1F1F1;}
	.st3{fill:#EFEFEF;}
	.st4{fill:#EDEDED;}
	.st5{fill:#0B0B0B;}
	.st6{fill:#070707;}
	.st7{fill:#090909;}
	.st8{fill:#222222;}
	.st9{fill:#212121;}
	.st10{fill:#202020;}
	.st11{fill:#1F1F1F;}
</style>
<g>
	<g>
		<path class="st0" d="M224.9,112.7c0,36.1,0,72.3,0.1,108.4c0,3.1-0.6,3.9-3.8,3.9c-72.4-0.1-144.9-0.1-217.3,0
			c-3.1,0-3.9-0.6-3.9-3.8C0.1,148.7,0.1,76.3,0,3.9C0,0.8,0.6,0,3.8,0c72.4,0.1,144.9,0.1,217.3,0c3.1,0,3.9,0.6,3.9,3.8
			C224.9,40.1,224.9,76.4,224.9,112.7z"/>
		<path class="st1" d="M84.8,108.7c0-22,0.1-44-0.1-65.9c0-4.3,0.3-6,5.6-5.1c28,4.8,56.1,9.1,84.2,13.3c4.9,0.7,6.5,2.4,6.4,7.5
			c-0.5,34.1-0.8,68.2-0.9,102.4c0,3.6-0.9,4.9-4.8,5.6c-28.4,4.6-56.7,9.4-85.1,14.4c-4.1,0.7-5.5-0.1-5.5-4.6
			C84.9,153.6,84.8,131.2,84.8,108.7C84.8,108.7,84.8,108.7,84.8,108.7z"/>
		<path class="st2" d="M84.3,181.6c-10.7-4.6-20.4-8.8-30.3-12.8c-2-0.8-2.2-2.1-2.2-3.9c0-38.4,0-76.8,0-115.3c0-2.5,1-3.4,3.2-4.1
			c8.1-2.4,16.3-4.8,24.3-7.5c3.8-1.3,5-0.9,5,3.5c-0.2,28.8-0.1,57.6,0,86.3C84.3,145.5,84.3,163.1,84.3,181.6z"/>
		<path class="st2" d="M92.9,144.5c0-8.3,0.2-16.6-0.1-24.9c-0.1-3.5,1.2-4.3,4.2-4.2c3.1,0.1,6.3-0.1,9.5-0.1
			c5.3-0.1,10,1,12.6,6.1c2.7,5.3,2.7,10.7-0.4,15.7c-1.4,2.3-1.4,3.2,0.5,5.1c7.8,7.9,3.6,24.3-7.1,27.6c-5,1.6-10.4,2-15.6,3.1
			c-2.7,0.6-3.6-0.3-3.5-3c0.2-4.3,0-8.6,0-13c0-4.2,0-8.3,0-12.5C93.1,144.5,93,144.5,92.9,144.5z"/>
		<path class="st2" d="M122.8,89.7c-0.3,1.5-0.5,2.9-0.8,4.4c-1,6.3-4.9,10.2-11.3,10.7c-5,0.4-10,0.1-15,0.2
			c-2.4,0.1-3.1-1-3.1-3.3c-0.1-18.1-0.2-36.2-0.4-54.4c0-2.7,1-3.1,3.3-2.6c1.8,0.4,3.6,0.7,5.4,0.9c12.3,0.9,20.2,6.7,21.8,19.5
			c1.1,0.7,1.4,1.8,1.5,3c0.2,6.1,0.2,12.3,0,18.5C124.3,87.9,123.9,89,122.8,89.7z"/>
		<path class="st2" d="M150.9,92c-0.2,1-0.5,1.9-0.7,2.9c-1.4,7.5-5.1,11-11.6,11.1c-6.6,0.1-11-3.7-12.7-10.8
			c-0.2-0.8-0.5-1.5-0.8-2.3c-1.3-1.1-1.1-2.7-1.1-4.1c0-6.8,0-13.5,0-20.3c0-1.4-0.3-3,1.1-4.1c0.2-0.8,0.5-1.6,0.6-2.4
			c1.3-7.5,3.8-10.5,9.3-11.1c6.5-0.7,12.1,2.8,14.4,9.1c0.4,1.1,0.8,2.1,1.1,3.2c2.4,8.8,1.9,17.8,1.5,26.8
			C152.1,90.8,151.5,91.4,150.9,92z"/>
		<path class="st2" d="M153,69c0.6-11.6,7-16.4,16.2-12.3c3.2,1.4,4.1,5.5,1.8,8.1c-1.3,1.4-2.1,0-3-0.3c-2.7-0.8-5.8-2.1-7.6,1
			c-2,3.3,0.3,5.6,2.8,7.5c2.5,2,5,3.8,7.3,6c5.6,5.2,6.8,11.7,4.9,18.7c-1.7,6.4-6.8,9.3-13.5,8.2c-5.9-1-9.8-6.4-9.8-13.7
			c0.1-0.2,0.2-0.4,0.3-0.6c3.5-1.9,5.9-0.5,8,2.4c1.4,2,3.1,3.7,5.8,2.2c2.6-1.5,2.5-4.1,1.8-6.6c-1.1-3.8-4.2-5.8-7.3-7.7
			c-4.5-2.7-7.5-6.4-8.3-11.7C152.4,69.8,152.6,69.4,153,69z"/>
		<path class="st3" d="M149.8,153.7c-1.6,5.6-4,10.5-10.2,12.4c-7.7,2.4-14.1-1.4-14.5-9.4c-0.5-10.1-0.5-20.2,0.1-30.3
			c0.5-8.6,6.3-13.4,14-12.9c6.1,0.4,8.9,4.4,10.6,9.6C150.8,133.4,150.9,143.6,149.8,153.7z"/>
		<path class="st4" d="M163.4,134.1c4.5-6.5,5.8-14.5,10.5-20.4c0.5,0.3,0.9,0.5,1.4,0.8c-3,6.6-5.8,13.2-9,19.7
			c-1.1,2.3-1.1,4.2,0.1,6.5c2.7,5.2,5.1,10.4,7.5,15.7c0.4,1,2.2,2.3,0.1,3.2c-1.5,0.6-1.8-1-2.3-2c-2.6-5.3-5.2-10.7-8-16.5
			c-4.6,7.8-7,16.1-11.7,23c-0.6-0.3-1.1-0.6-1.7-0.9c3.1-6.6,5.8-13.5,9.3-19.9c2.3-4.1,2.3-7.4,0-11.5c-2.5-4.5-4.4-9.3-6.4-14
			c-0.5-1.1-2.2-2.5-0.5-3.4c1.9-1,2.3,1.4,2.9,2.6C158.2,122.6,160.7,128.2,163.4,134.1z"/>
		<path class="st5" d="M125.1,64.3c0,9.5,0,19-0.1,28.5c-3.6,1-1.2-2.3-2.2-3.1c0-8.2,0-16.3,0-24.5c0.3-0.9,0.4-2.2,1-2.5
			C124.8,62.3,124.7,63.7,125.1,64.3z"/>
		<path class="st6" d="M149.8,153.7c0-10.2,0-20.4,0-30.6c0.5-0.3,1.1-0.1,1.1,0.4c0,9.9,0,19.8,0,29.8c0,0.1-0.1,0.4-0.2,0.4
			C150.4,153.8,150.1,153.7,149.8,153.7z"/>
		<path class="st7" d="M153,69c0.3,0.2,0.3,0.5,0.1,0.8c0.7,5.3,0.9,10.5,0.8,15.8c-0.1,2.3-0.1,4.7-1.7,6.6l0,0
			c-0.4-0.1-0.8-0.2-1.2-0.2c-0.1-9.6-0.2-19.3-0.2-28.9C153.2,64.4,150.9,67.5,153,69z"/>
		<path class="st8" d="M106.5,147c4.2-0.2,7.2,0.6,8.1,4.3c0.9,4,0.5,8-3.5,10.5c-0.5,0.3-1.2,0.5-1.8,0.7c-7.5,2.6-8,2.2-8-5.6
			c0-1.3,0.2-2.7,0-4C100.5,148.2,102.5,146.3,106.5,147z"/>
		<path class="st9" d="M101,131.6c1.4-2.4-2.5-7.2,3.9-7.2c5.6,0.1,7.4,1.4,7.4,6.1c0.1,5.4-2.5,8.3-8.3,8.1
			C98.6,138.4,102.7,133.7,101,131.6z"/>
		<path class="st10" d="M101,76c0-5.8,0.1-11.7,0-17.5c-0.1-2.4,0.5-3.1,3.1-2.9c8.4,0.7,11.1,3.5,11.2,11.9c0,7.5,0,15,0,22.5
			c0,2.6-0.6,5.1-3.5,6c-3.2,1-6.6,1-9.8,0.1c-1.3-0.4-0.7-2-0.7-3.1c0-5.7,0-11.3,0-17C101.1,76,101,76,101,76z"/>
		<path class="st10" d="M132.7,78.1c0-4.2-0.1-8.3,0-12.5c0.1-2.8,0.8-5.4,4.4-5.6c3.6-0.2,6.1,1.4,6.9,5.1
			c0.8,3.8,0.4,7.6,0.4,11.5c0,4.8,0,9.7-0.2,14.5c-0.2,3.4-1.5,6.3-5.5,6.5c-4.2,0.1-5.9-2.7-6.1-6.4c-0.2-4.3,0-8.7,0-13
			C132.6,78.1,132.7,78.1,132.7,78.1z"/>
		<path class="st11" d="M152.2,92.3c0.1-7.5-1.2-15.1,0.9-22.5c1.5,5.9,5.7,9.4,10.6,12.4c4,2.5,6.8,5.7,6.5,10.8
			c-0.2,2.8-1.5,4.7-4.3,5.4c-2.8,0.7-5.5-0.2-6.2-2.7C158.4,91.2,155.4,91.7,152.2,92.3z"/>
		<path class="st11" d="M147.1,139.3c0,4.3,0.1,8.7,0,13c-0.1,3.3-1.1,6.2-3.6,8.5c-3.1,2.8-6.8,3.5-10.7,2.2
			c-3.7-1.2-4.8-4.6-4.8-8c-0.1-9.1,0-18.3,0.1-27.4c0-2.3,0.7-4.6,2-6.6c2.6-3.8,6.3-4.7,10.5-3.9c3.9,0.7,6.1,3.5,6.4,7.3
			C147.4,129.3,147.1,134.3,147.1,139.3z"/>
	</g>
</g>
</svg>
